<svg xmlns="http://www.w3.org/2000/svg" xmlns:xlink="http://www.w3.org/1999/xlink" viewBox="0 0 65 65"><defs><path id="a" d="m14.954 0-.889 20.593H.74L0 0"/></defs><g fill="none"><rect width="64" height="64" x=".5" y=".5" fill="#FAFAFA" stroke="#D8D8DA" rx="16"/><g fill-rule="evenodd" transform="translate(15.61 10.5)"><path fill="#E9654B" fill-rule="nonzero" d="M9.695 31.322s-.276.746-.69 1.119c-.247.245-.6.382-.967.373-.681.165-1.373.29-2.072.372 0 0 .967.125 2.072.249.414 0 .414 0 .69.124.69 0 .967-.373.967-.373v-1.864ZM24.024 31.322s.32.746.8 1.119c.284.245.693.382 1.118.373.787.165 1.588.29 2.397.372 0 0-1.119.125-2.557.249-.48 0-.48 0-.799.124-.959 0-1.119-.373-1.119-.373l.16-1.864Z"/><circle cx="17.153" cy="16.407" r="16.407" fill="#B6CFEA" fill-rule="nonzero"/><circle cx="17.153" cy="16.407" r="15.661" fill="#E6F5F8" fill-rule="nonzero"/><circle cx="17.525" cy="16.78" r="13.051" fill="#D0E8F0" fill-rule="nonzero"/><path fill="#EE794B" fill-rule="nonzero" d="M9.377 22.505s1.036 16.986 1.036 17.286c0 .15.148.451-.592.752-.74.3-3.11.902-3.11.902h3.554c1.629 0 1.629-1.353 1.629-1.654 0-.3.444-6.764.444-6.764s.148 7.666.148 7.967c0 .3-.148.751-1.184 1.052l-2.961.601h3.405c2.073 0 2.073-1.353 2.073-1.353l.444-6.764s.148 6.764.148 7.516c0 .601-.444 1.052-2.073 1.353-1.036.3-2.369.601-2.369.601h3.85c1.924-.15 2.22-1.503 2.22-1.503l3.258-16.836-9.92-3.156Z"/><path fill="#EE794B" fill-rule="nonzero" d="M24.182 22.505S23.146 39.49 23.146 39.79c0 .15-.148.451.592.752.74.3 3.11.902 3.11.902h-3.554c-1.628 0-1.628-1.353-1.628-1.654 0-.3-.445-6.764-.445-6.764s-.148 7.666-.148 7.967c0 .3.148.751 1.185 1.052l2.96.601h-3.404c-2.073 0-2.073-1.353-2.073-1.353l-.444-6.764s-.148 6.764-.148 7.516c0 .601.444 1.052 2.072 1.353 1.037.3 2.37.601 2.37.601h-3.85c-1.925-.15-2.221-1.503-2.221-1.503L14.263 25.66l9.92-3.156ZM24.33 14.237c0 4.21-3.405 7.516-7.402 7.516-3.998 0-7.403-3.457-7.403-7.516 0-4.058 3.405-7.515 7.403-7.515 3.997 0 7.403 3.307 7.403 7.515Z"/><g transform="translate(9.377 13.937)"><mask id="b" fill="#fff"><use xlink:href="#a"/></mask><ellipse cx="7.551" cy="4.359" fill="#EE794B" fill-rule="nonzero" mask="url(#b)" rx="13.177" ry="13.378"/></g><path fill="#E34E3B" fill-rule="nonzero" d="M23.886 22.505s.889-7.967-.296-10.973c-2.22-5.261-7.402-4.81-7.402-4.81s2.96 1.202 3.109 5.712c.148 3.156 0 7.816 0 7.816l4.59 2.255Z" opacity=".22"/><g fill-rule="nonzero" transform="translate(6.712 9.695)"><ellipse cx="1.068" cy="1.067" fill="#FBDFC3" opacity=".5" rx="1.068" ry="1.067" transform="translate(5.95)"/><path fill="#010101" d="M12.814 16.614c0 2.59-1.22 4.267-2.746 4.267S7.322 18.9 7.322 16.31c0 0 1.22 2.438 2.898 2.438 1.678 0 2.594-2.133 2.594-2.133Z"/><path fill="#FFF" d="M12.814 16.614c0 1.676-1.22 2.59-2.746 2.59s-2.593-1.219-2.593-2.743c0 0 1.22 1.524 2.898 1.524 1.678 0 2.44-1.371 2.44-1.371Z"/><ellipse cx="15.407" cy="9.45" fill="#E9654B" rx="4.729" ry="4.725"/><ellipse cx="4.729" cy="9.45" fill="#E9654B" rx="4.729" ry="4.725"/><ellipse cx="15.407" cy="9.45" fill="#FFF" rx="3.661" ry="3.658"/><ellipse cx="4.424" cy="9.45" fill="#FFF" rx="3.661" ry="3.658"/><ellipse cx="4.424" cy="8.993" fill="#010101" rx="1.068" ry="1.067"/><ellipse cx="15.407" cy="8.993" fill="#010101" rx="1.068" ry="1.067"/></g><path fill="#B6CFEA" fill-rule="nonzero" d="M.746 20.88A.703.703 0 0 1 0 20.135V14.17a.705.705 0 0 1 .745-.746.703.703 0 0 1 .744.746v5.964a.705.705 0 0 1-.744.745ZM33.56 20.88a.703.703 0 0 1-.745-.745V14.17a.705.705 0 0 1 .744-.746.703.703 0 0 1 .745.746v5.964a.705.705 0 0 1-.745.745Z"/><circle cx="11.932" cy="4.475" r="1" fill="#FFF" fill-rule="nonzero"/><path fill="#FFF" fill-rule="nonzero" d="M6.9 24.606a.563.563 0 0 1-.453-.147c-1.812-2.214-2.718-5.017-2.718-7.82a12.935 12.935 0 0 1 1.812-6.64 14.615 14.615 0 0 1 4.832-4.722.675.675 0 0 1 .755.148.638.638 0 0 1-.15.737C7.163 8.268 4.8 12.212 4.785 16.491a11.46 11.46 0 0 0 2.567 7.23c.151.147.151.59-.15.738-.152.147-.152.147-.303.147Z"/><path fill="#E9654B" fill-rule="nonzero" d="M23.864 31.073v-1.242c-2.133 1.242-4.418 2.485-7.16 2.485-3.048 0-5.028-1.398-7.01-2.486l.153 1.243s2.286 2.486 7.009 2.486c4.418-.155 7.008-2.486 7.008-2.486Z" opacity=".25"/></g></g></svg>